<svg width="60" height="64" viewBox="0 0 60 64" fill="none" xmlns="http://www.w3.org/2000/svg">
<path d="M52.1026 15.5632L52.1011 15.5611C51.2462 14.356 50.7182 12.7958 50.2482 11.4068C50.1561 11.1346 50.0662 10.869 49.9765 10.614C49.3877 8.93927 48.7962 7.65037 47.8034 6.91271L47.8029 6.91232C46.8304 6.18871 45.4703 6.01549 43.7314 5.95948C43.4753 5.95123 43.2095 5.94574 42.9369 5.94011C41.4905 5.91024 39.851 5.87637 38.4371 5.40538C37.5917 5.12463 36.7992 4.67169 36.0655 4.19004C35.5986 3.8836 35.1147 3.5369 34.6492 3.20338C34.4 3.02483 34.156 2.85006 33.9228 2.68726C32.4933 1.68947 31.2626 1 30 1C28.7374 1 27.5067 1.68948 26.0766 2.68735C25.8438 2.84975 25.6005 3.02402 25.3519 3.20206C24.8855 3.53603 24.4006 3.88326 23.9326 4.19023C23.1983 4.67192 22.405 5.1248 21.5587 5.4055C20.1436 5.8756 18.5051 5.90956 17.0595 5.93952C16.7863 5.94518 16.52 5.9507 16.2634 5.95899C14.526 6.01513 13.167 6.18851 12.1936 6.91208L52.1026 15.5632ZM52.1026 15.5632C52.9508 16.7525 54.2349 17.7393 55.3779 18.6178C55.6079 18.7946 55.8322 18.967 56.0461 19.1357C57.4175 20.2178 58.4412 21.1956 58.8279 22.4117C59.1967 23.5752 58.9313 24.951 58.444 26.6608C58.3747 26.9039 58.3005 27.1544 58.2246 27.411C57.802 28.8393 57.3242 30.4538 57.3242 32C57.3242 33.5462 57.802 35.1607 58.2246 36.5889C58.3005 36.8455 58.3747 37.0961 58.444 37.3392C58.9314 39.0493 59.1968 40.4253 58.8277 41.5889C58.4417 42.8057 57.4185 43.7823 56.0469 44.8635C55.8337 45.0316 55.6101 45.2033 55.3808 45.3793C54.237 46.2577 52.9512 47.2451 52.1022 48.4374L52.102 48.4375M52.1026 15.5632L52.102 48.4375M7.89796 15.5624L7.89785 15.5626C7.04882 16.7549 5.76301 17.7423 4.61915 18.6207C4.38987 18.7967 4.1663 18.9684 3.95309 19.1365C2.58155 20.2177 1.55834 21.1943 1.17232 22.4111L1.17225 22.4113C0.803304 23.5734 1.06858 24.9492 1.55603 26.6598C1.62529 26.9029 1.69941 27.1534 1.77531 27.41C2.19797 28.8386 2.67578 30.4537 2.67578 32C2.67578 33.5462 2.19802 35.1607 1.77539 36.589C1.69945 36.8456 1.6253 37.0961 1.55602 37.3392C1.06864 39.0493 0.803233 40.4253 1.17233 41.5889C1.55912 42.8048 2.58274 43.7824 3.95391 44.8643C4.1678 45.033 4.3921 45.2054 4.62212 45.3822C5.76513 46.2606 7.04922 47.2475 7.89743 48.4368L7.89796 48.4375C8.75828 49.6461 9.28719 51.211 9.75761 52.6028C9.84853 52.8718 9.93726 53.1343 10.0258 53.3866C10.6137 55.0619 11.2031 56.3503 12.1944 57.0876L12.1946 57.0877C13.1671 57.8113 14.5271 57.9845 16.266 58.0405C16.5221 58.0488 16.7879 58.0543 17.0606 58.0599C18.5069 58.0898 20.1463 58.1236 21.5602 58.5946M7.89796 15.5624L47.8067 57.0877C46.8334 57.8115 45.4741 57.9849 43.7366 58.041C43.48 58.0493 43.2137 58.0548 42.9405 58.0605C41.4949 58.0904 39.8564 58.1244 38.4413 58.5945C37.595 58.8752 36.8018 59.3281 36.0674 59.8098C35.5994 60.1167 35.1145 60.464 34.6481 60.798C34.3995 60.976 34.1562 61.1502 33.9234 61.3126C32.4933 62.3105 31.2626 63 30 63C28.7374 63 27.5067 62.3105 26.0768 61.3127C25.8439 61.1502 25.6003 60.9757 25.3515 60.7975C24.8854 60.4637 24.4009 60.1166 23.9333 59.8098C23.1991 59.3282 22.4062 58.8753 21.5602 58.5946M7.89796 15.5624C8.75849 14.3536 9.28743 12.7885 9.75785 11.3966M7.89796 15.5624L9.75785 11.3966M21.5602 58.5946C21.56 58.5945 21.5598 58.5944 21.5596 58.5944L21.2448 59.5435L21.5609 58.5948C21.5607 58.5947 21.5604 58.5946 21.5602 58.5946ZM52.102 48.4375C51.2415 49.6464 50.7126 51.2115 50.2421 52.6034M52.102 48.4375L50.2421 52.6034M9.75785 11.3966C9.84864 11.128 9.93724 10.8658 10.0256 10.6138M9.75785 11.3966L10.0256 10.6138M10.0256 10.6138C10.6134 8.93871 11.2025 7.6502 12.1935 6.91219L10.0256 10.6138ZM50.2421 52.6034C50.1514 52.8721 50.0628 53.1342 49.9744 53.3862M50.2421 52.6034L49.9744 53.3862M49.9744 53.3862C49.3867 55.0611 48.7976 56.3495 47.8069 57.0875L49.9744 53.3862Z" fill="#51C800" stroke="#F8F8F8" stroke-width="2"/>
</svg>
